<?xml version="1.0" encoding="utf-8"?>
<!-- Generator: Adobe Illustrator 14.0.0, SVG Export Plug-In  -->
<!DOCTYPE svg PUBLIC "-//W3C//DTD SVG 1.1//EN" "http://www.w3.org/Graphics/SVG/1.1/DTD/svg11.dtd" [
	<!ENTITY ns_flows "http://ns.adobe.com/Flows/1.0/">
]>
<svg version="1.1"
	 xmlns="http://www.w3.org/2000/svg" xmlns:xlink="http://www.w3.org/1999/xlink" xmlns:a="http://ns.adobe.com/AdobeSVGViewerExtensions/3.0/"
	 x="0px" y="0px" width="161px" height="25px" viewBox="-0.064 0 161 25" enable-background="new -0.064 0 161 25"
	 xml:space="preserve">
<defs>
</defs>
<polygon id="XMLID_14_" points="0,3.224 5.937,3.224 5.937,19.455 9.384,19.455 9.384,3.224 15.322,3.224 15.322,0 0,0 "/>
<path id="XMLID_13_" d="M25.999,5.187c-2.49,0-4.118,1.181-4.947,1.995V0H17.62v19.455h3.432V9.847
	c1.34-1.212,2.441-1.739,3.654-1.739c1.357,0,1.963,0.654,1.963,2.138v9.209h3.416V9.448C30.085,6.767,28.553,5.187,25.999,5.187z"
	/>
<rect id="XMLID_12_" x="33.054" y="5.442" width="3.415" height="14.013"/>
<rect id="XMLID_11_" x="33.038" y="0.255" width="3.479" height="2.984"/>
<path id="XMLID_10_" d="M43.013,7.549V5.442h-3.399v14.013h3.399v-8.81c1.005-1.628,2.33-2.378,4.166-2.378
	c0.191,0,0.702,0.032,0.846,0.047l0.112,0.016l0.112-3.16h-0.303C45.742,5.187,44.082,5.985,43.013,7.549z"/>
<path id="XMLID_9_" d="M62.229,15.976V0h-3.399v6.767c-0.99-1.021-2.378-1.596-3.862-1.596c-3.814,0-6.001,2.666-6.001,7.31
	c0,4.5,2.075,7.181,5.57,7.181c1.724,0,3.097-0.605,4.31-1.931c0.032,0.655,0.144,1.309,0.319,1.66l0.032,0.063h3.527l-0.064-0.144
	C62.34,18.674,62.229,17.7,62.229,15.976z M58.829,9.688v5.475c-0.654,0.781-1.899,1.676-3.256,1.676
	c-2.075,0-3.208-1.516-3.208-4.277c0-3.144,1.021-4.533,3.32-4.533C56.834,8.028,58.015,8.65,58.829,9.688z"/>
<path id="XMLID_8_" d="M82.322,9.369c2.043-0.542,3.16-2.106,3.16-4.453c0-3.192-2.362-4.884-6.815-4.884h-6.815v19.455h7.278
	c4.325,0,6.911-2.011,6.911-5.379C86.057,11.491,84.828,9.927,82.322,9.369z M75.252,8.076V3.08h3.16
	c2.666,0,3.751,0.718,3.751,2.458c0,1.724-1.213,2.538-3.815,2.538H75.252z M75.252,11.029h3.208c2.856,0,4.197,0.877,4.197,2.745
	c0,1.883-1.197,2.713-3.863,2.713h-3.543V11.029z"/>
<path id="XMLID_7_" d="M91.787,7.581V5.475h-3.399v14.013h3.399v-8.826c1.006-1.628,2.331-2.378,4.166-2.378
	c0.192,0,0.703,0.031,0.846,0.047l0.111,0.016l0.112-3.16h-0.304C94.516,5.203,92.856,6.001,91.787,7.581z"/>
<rect id="XMLID_6_" x="99.208" y="0.287" width="3.479" height="2.985"/>
<rect id="XMLID_5_" x="99.24" y="5.475" width="3.416" height="14.013"/>
<path id="XMLID_4_" d="M118.312,16.008V0.032h-3.399v6.767c-0.989-1.021-2.378-1.596-3.862-1.596c-3.815,0-6.001,2.666-6.001,7.31
	c0,4.5,2.075,7.181,5.57,7.181c1.724,0,3.096-0.605,4.31-1.931c0.032,0.654,0.144,1.31,0.319,1.66l0.032,0.063h3.527l-0.063-0.144
	C118.424,18.689,118.312,17.731,118.312,16.008z M114.913,9.704v5.474c-0.655,0.782-1.899,1.676-3.256,1.676
	c-2.075,0-3.208-1.516-3.208-4.277c0-3.145,1.021-4.533,3.304-4.533C112.918,8.06,114.099,8.683,114.913,9.704z"/>
<path id="XMLID_3_" d="M131.272,6.639c-0.766-0.67-2.123-1.436-4.245-1.436c-3.527,0-5.905,2.027-5.905,5.043
	c0,1.66,0.75,3.064,2.106,3.975c-0.846,0.526-1.788,1.389-1.788,2.521c0,0.718,0.319,1.293,0.942,1.676
	c-1.389,0.591-2.139,1.629-2.139,2.937c0,1.596,1.165,3.479,6.767,3.479c4.597,0,7.23-1.58,7.23-4.31
	c0-2.489-1.676-3.607-5.793-3.878l-2.442-0.16c-1.293-0.111-1.5-0.302-1.5-0.733c0-0.287,0.208-0.543,0.623-0.782
	c0.639,0.175,1.117,0.287,1.916,0.287c3.559,0,5.857-1.963,5.857-5.012c0-0.686-0.159-1.309-0.447-1.819
	c0.958-0.287,1.819-0.319,2.267-0.319h0.096V5.299l-0.112,0.016C133.554,5.411,132.166,5.953,131.272,6.639z M123.388,20.812
	c0-0.733,0.415-1.308,1.197-1.675c0.287,0.048,0.542,0.08,0.814,0.08l0,0l2.394,0.159c2.937,0.191,3.415,0.591,3.415,1.436
	c0,0.927-1.452,1.517-3.703,1.517C124.569,22.328,123.388,21.897,123.388,20.812z M129.772,10.358c0,1.612-0.958,2.505-2.682,2.505
	c-1.739,0-2.745-0.91-2.745-2.505c0-1.628,0.99-2.554,2.713-2.554C128.831,7.805,129.772,8.683,129.772,10.358z"/>
<path id="XMLID_2_" d="M148.525,12.768c0-2.282-0.607-7.565-6.161-7.565c-1.628,0-3.256,0.606-4.437,1.644
	c-1.468,1.309-2.25,3.255-2.25,5.634c0,5.363,3.496,7.278,6.767,7.278c2.378,0,4.357-0.846,5.873-2.537l0.064-0.063l-1.835-1.804
	l-0.063,0.063c-0.974,0.957-1.996,1.579-3.815,1.579c-2.17,0-3.447-1.196-3.591-3.399h9.449V12.768z M139.141,11.044
	c0.287-1.931,1.453-3.032,3.192-3.032c1.819,0,2.841,1.021,3.048,3.032H139.141z"/>
<path id="XMLID_1_" fill="#5087A5" d="M155.101,11.411c-2.123,2.203-3.591,4.82-4.5,7.789c2.968,0.734,5.969,0.702,8.985,0
	C158.756,16.248,157.224,13.678,155.101,11.411"/>
</svg>
