<?xml version="1.0" encoding="UTF-8" standalone="no"?>
<!-- Generator: Adobe Illustrator 19.0.0, SVG Export Plug-In . SVG Version: 6.00 Build 0)  -->

<svg
   xmlns:dc="http://purl.org/dc/elements/1.1/"
   xmlns:cc="http://creativecommons.org/ns#"
   xmlns:rdf="http://www.w3.org/1999/02/22-rdf-syntax-ns#"
   xmlns:svg="http://www.w3.org/2000/svg"
   xmlns="http://www.w3.org/2000/svg"
   xmlns:sodipodi="http://sodipodi.sourceforge.net/DTD/sodipodi-0.dtd"
   xmlns:inkscape="http://www.inkscape.org/namespaces/inkscape"
   version="1.1"
   id="Layer_1"
   x="0px"
   y="0px"
   viewBox="0 0 480.001 480.001"
   style="enable-background:new 0 0 480.001 480.001;"
   xml:space="preserve"
   sodipodi:docname="03-sales-targeting.svg"
   inkscape:version="0.92.3 (2405546, 2018-03-11)"><metadata
   id="metadata51"><rdf:RDF><cc:Work
       rdf:about=""><dc:format>image/svg+xml</dc:format><dc:type
         rdf:resource="http://purl.org/dc/dcmitype/StillImage" /></cc:Work></rdf:RDF></metadata><defs
   id="defs49" /><sodipodi:namedview
   pagecolor="#ffffff"
   bordercolor="#666666"
   borderopacity="1"
   objecttolerance="10"
   gridtolerance="10"
   guidetolerance="10"
   inkscape:pageopacity="0"
   inkscape:pageshadow="2"
   inkscape:window-width="1920"
   inkscape:window-height="1052"
   id="namedview47"
   showgrid="false"
   inkscape:zoom="0.69532021"
   inkscape:cx="188.06174"
   inkscape:cy="452.46254"
   inkscape:window-x="0"
   inkscape:window-y="0"
   inkscape:window-maximized="1"
   inkscape:current-layer="Layer_1" />
<rect
   style="opacity:1;fill:none;fill-opacity:1;stroke:none;stroke-width:0;stroke-linecap:round;stroke-miterlimit:4;stroke-dasharray:none;stroke-opacity:1"
   id="rect858"
   width="488.13663"
   height="488.13663"
   x="22.372936"
   y="28.474667"
   inkscape:export-xdpi="12.58664"
   inkscape:export-ydpi="12.58664" /><g
   id="g14"
   transform="translate(26.440665,32.542078)"
   inkscape:export-xdpi="12.58664"
   inkscape:export-ydpi="12.58664">
	<g
   id="g12">
		<g
   id="g10">
			<path
   d="m 364.997,167.453 c -5.14,2.021 -7.668,7.826 -5.647,12.966 8.044,20.459 12.124,42.115 12.124,64.366 0,96.893 -78.851,175.72 -175.772,175.72 -96.881,0 -175.7,-78.828 -175.7,-175.72 0,-96.876 78.819,-175.691 175.7,-175.691 48.879,0 94.279,19.559 127.835,55.072 3.794,4.015 10.123,4.194 14.136,0.401 4.015,-3.793 4.194,-10.122 0.401,-14.137 C 319.967,91.266 298.594,76.185 274.549,65.604 249.65,54.649 223.123,49.094 195.7,49.094 87.79,49.094 0,136.88 0,244.785 c 0,107.92 87.79,195.72 195.7,195.72 52.297,0 101.46,-20.353 138.432,-57.311 36.977,-36.962 57.341,-86.117 57.341,-138.409 0,-24.767 -4.546,-48.885 -13.51,-71.685 -2.022,-5.139 -7.824,-7.668 -12.966,-5.647 z"
   id="path2"
   inkscape:connector-curvature="0" />
			<path
   d="m 291.622,158.77 c 3.808,-4 3.652,-10.33 -0.348,-14.138 -25.892,-24.649 -59.834,-38.225 -95.574,-38.225 -76.264,0 -138.309,62.076 -138.309,138.377 0,76.306 62.045,138.385 138.309,138.385 76.347,0 138.46,-62.079 138.46,-138.385 0,-14.27 -2.175,-28.322 -6.466,-41.766 -1.679,-5.261 -7.306,-8.164 -12.567,-6.487 -5.262,1.679 -8.165,7.306 -6.487,12.567 3.663,11.477 5.52,23.483 5.52,35.686 0,65.277 -53.141,118.385 -118.46,118.385 -65.236,0 -118.309,-53.107 -118.309,-118.385 0,-65.273 53.073,-118.377 118.309,-118.377 30.582,0 59.627,11.617 81.784,32.71 4,3.809 10.33,3.653 14.138,-0.347 z"
   id="path4"
   inkscape:connector-curvature="0" />
			<path
   d="m 195.7,180.313 c 12.1,0 23.862,3.345 34.034,9.683 1.606,0.996 3.128,2.047 4.525,3.123 4.376,3.369 10.654,2.554 14.024,-1.821 3.37,-4.376 2.554,-10.655 -1.821,-14.024 -1.929,-1.485 -4.011,-2.923 -6.169,-4.262 -13.33,-8.307 -28.75,-12.698 -44.594,-12.698 -46.535,0 -84.395,37.894 -84.395,84.472 0,46.594 37.859,84.501 84.395,84.501 46.611,0 84.532,-37.907 84.532,-84.501 0,-3.803 -0.254,-7.523 -0.778,-11.373 -0.744,-5.472 -5.783,-9.301 -11.257,-8.561 -5.472,0.745 -9.305,5.784 -8.561,11.257 0.401,2.947 0.596,5.785 0.596,8.677 0,35.566 -28.949,64.501 -64.532,64.501 -35.507,0 -64.395,-28.935 -64.395,-64.501 0.002,-35.551 28.889,-64.473 64.396,-64.473 z"
   id="path6"
   inkscape:connector-curvature="0" />
			<path
   d="M 475.132,119.668 434.317,95.262 429.429,48.458 c -0.36,-3.455 -2.488,-6.474 -5.619,-7.977 -3.13,-1.502 -6.818,-1.273 -9.738,0.606 l -39.283,25.28 c -2.819,1.814 -4.542,4.921 -4.587,8.273 l -0.704,51.944 -158.391,96.197 c -4.553,-3.296 -10.138,-5.246 -16.172,-5.246 -15.304,0 -27.754,12.442 -27.754,27.735 0,15.293 12.451,27.735 27.754,27.735 15.264,0 27.682,-12.442 27.682,-27.735 0,-1.96 -0.207,-3.872 -0.595,-5.718 l 159.055,-96.6 45.577,19.711 c 1.272,0.55 2.623,0.821 3.969,0.821 1.886,0 3.762,-0.533 5.396,-1.581 l 39.377,-25.235 c 2.916,-1.868 4.657,-5.112 4.604,-8.574 -0.055,-3.461 -1.896,-6.649 -4.868,-8.426 z m -45.424,22.526 -40.185,-17.378 0.604,-44.535 21.099,-13.578 3.719,35.612 c 0.327,3.132 2.111,5.928 4.814,7.544 l 31.248,18.685 z"
   id="path8"
   inkscape:connector-curvature="0" />
		</g>
	</g>
</g>
<g
   id="g16">
</g>
<g
   id="g18">
</g>
<g
   id="g20">
</g>
<g
   id="g22">
</g>
<g
   id="g24">
</g>
<g
   id="g26">
</g>
<g
   id="g28">
</g>
<g
   id="g30">
</g>
<g
   id="g32">
</g>
<g
   id="g34">
</g>
<g
   id="g36">
</g>
<g
   id="g38">
</g>
<g
   id="g40">
</g>
<g
   id="g42">
</g>
<g
   id="g44">
</g>
</svg>