<?xml version="1.0" encoding="utf-8"?>
<!-- Svg Vector Icons : http://www.onlinewebfonts.com/icon -->
<!DOCTYPE svg PUBLIC "-//W3C//DTD SVG 1.1//EN" "http://www.w3.org/Graphics/SVG/1.1/DTD/svg11.dtd">
<svg version="1.1" xmlns="http://www.w3.org/2000/svg" xmlns:xlink="http://www.w3.org/1999/xlink" x="0px" y="0px" viewBox="0 0 1000 1000" enable-background="new 0 0 1000 1000" xml:space="preserve">
<metadata> Svg Vector Icons : http://www.onlinewebfonts.com/icon </metadata>
<g><g transform="translate(0.000000,512.000000) scale(0.100000,-0.100000)"><path d="M4618.1,5001.4C3503.9,4877,2485.4,4298.9,1830.7,3424c-279.5-375.2-453.7-702.6-593.5-1127.6c-78.5-233.6-162.7-587.7-162.7-679.6c0-28.7-19.1-44-80.4-61.3c-116.8-30.6-294.8-124.4-419.3-218.2c-187.6-145.5-325.4-342.7-413.5-593.5l-53.6-153.2L101.9-156c-7.7-853.8,1.9-928.5,132.1-1192.7c139.7-283.3,390.5-507.3,706.4-627.9c134-49.8,162.7-53.6,421.2-53.6c241.2-1.9,294.8,3.8,402,42.1c377.1,134,672,428.8,807.9,807.9c42.1,120.6,44,145.5,49.8,899.8c5.7,876.8,0,941.9-130.2,1202.3c-88.1,176.1-227.8,336.9-392.5,453.7l-118.7,86.1l26.8,157c36.4,202.9,155.1,560.9,254.6,769.6c222.1,465.2,637.5,936.2,1081.7,1221.4c484.3,314,997.4,470.9,1583.2,490.1c507.3,13.4,911.3-57.4,1336.3-235.5c377.1-160.8,698.8-379.1,995.5-679.6c409.7-413.5,694.9-947.6,811.7-1520.1c17.2-82.3,28.7-153.2,26.8-155.1c-3.8-3.8-72.7-49.8-153.2-103.4c-271.9-181.9-455.6-436.5-532.2-740.9c-34.5-134-38.3-214.4-38.3-888.3c0-823.2,11.5-915.1,134-1144.8c109.1-204.9,308.2-415.4,492-518.8c34.5-17.2-9.6-114.9-178-390.5c-520.7-853.8-1319.1-1403.3-2264.8-1556.4c-164.6-26.8-605-36.4-660.5-15.3c-17.2,5.8-59.3,51.7-93.8,101.5c-36.4,49.8-107.2,118.7-157,151.2c-88.1,59.4-413.5,174.2-679.6,243.1c-340.8,88.1-645.2-38.3-784.9-323.5c-109.1-222.1-93.8-449.9,42.1-654.7c91.9-134,222.1-216.3,495.8-310.1c568.6-191.4,783-178,1022.3,61.3l95.7,97.6l229.7-5.7c905.5-24.9,1776.6,279.5,2471.5,863.4c421.2,354.2,804.1,857.7,1031.9,1363.1c42.1,95.7,84.2,181.9,90,193.3c7.6,11.5,68.9,26.8,134,32.5c390.5,36.4,790.7,319.7,970.6,687.3c126.3,254.6,135.9,329.3,135.9,1131.4c0,800.2-9.6,874.9-135.9,1135.3c-126.4,258.5-363.8,480.5-639.4,595.4l-93.8,40.2l-51.7,256.5c-323.5,1638.7-1627.3,2883.1-3310.1,3164.6C5448.9,5011,4842.1,5026.3,4618.1,5001.4z"/></g></g>
</svg>