<?xml version="1.0"?>
<svg xmlns="http://www.w3.org/2000/svg" width="512" height="512" viewBox="0 0 512 512"><g><path d="M500.85,110.81A43.306,43.306,0,0,0,417.93,128H16a8,8,0,0,0-8,8V376a8,8,0,0,0,8,8H51.68a80.007,80.007,0,0,0,152.64,0H496a8,8,0,0,0,8-8V143.54a7.933,7.933,0,0,0-1-3.87A43.109,43.109,0,0,0,500.85,110.81ZM128,424a64.073,64.073,0,0,1-63.48-56h59.73l37.6,45.12a7.878,7.878,0,0,0,.69.72A63.636,63.636,0,0,1,128,424ZM64.52,352a63.96,63.96,0,0,1,93.87-48.31L123.88,352Zm110.2,51.67a7.175,7.175,0,0,0-.57-.79L138.1,359.62l33.29-46.61a63.848,63.848,0,0,1,3.33,90.66ZM488,368H207.6c.26-2.63.4-5.3.4-8a80,80,0,0,0-160,0c0,2.7.14,5.37.4,8H24V144H420.86c.23.61.48,1.22.75,1.82a43.036,43.036,0,0,0,13.47,17.04l-13.53,34.96a23.91,23.91,0,0,0-26.28,6.96.01.01,0,0,1-.01-.01l-42.19-16.33a24.042,24.042,0,0,0-15.34-23.09,23.994,23.994,0,0,0-24.29,40.59l-16.33,42.2a24.151,24.151,0,1,0,14.9,5.8c.01-.01.01-.01.01-.02l16.34-42.2v-.02c.25.01.49.03.74.03a23.9,23.9,0,0,0,18.16-8.38c.01,0,.01.01.02.01l42.19,16.33a24.008,24.008,0,1,0,45.96-8.99c-.3-.66-.62-1.3-.97-1.92l15.01-38.77a43.007,43.007,0,0,0,29.26-2.08,42.777,42.777,0,0,0,9.27-5.56ZM416.71,227.72a8,8,0,1,1-6.47-14.63,7.845,7.845,0,0,1,3.22-.69,8,8,0,0,1,3.25,15.32Zm-80.18-37.1a8,8,0,1,1-10.7-10.21,8.107,8.107,0,0,1,3.23-.68,8,8,0,0,1,2.89.54,8.014,8.014,0,0,1,4.58,10.35Zm-36.9,88.83a8,8,0,1,1-3.24-15.32,7.846,7.846,0,0,1,2.89.55,7.994,7.994,0,0,1,.35,14.77ZM472.27,153.3a27.321,27.321,0,1,1,13.94-36.02A27.149,27.149,0,0,1,472.27,153.3Z"/><path d="M472,296H392a8,8,0,0,0,0,16h80a8,8,0,0,0,0-16Z"/><path d="M472,320H416a8,8,0,0,0,0,16h56a8,8,0,0,0,0-16Z"/><path d="M472,344H456a8,8,0,0,0,0,16h16a8,8,0,0,0,0-16Z"/><path d="M432,344h-8a8,8,0,0,0,0,16h8a8,8,0,0,0,0-16Z"/><path d="M256,248.07V184a8,8,0,0,0-8-8H216a8,8,0,0,0-8,8v64h-8V168a8,8,0,0,0-8-8H160a8,8,0,0,0-8,8v80h-8V224a8,8,0,0,0-8-8H104a8,8,0,0,0-8,8v24H88V184a8,8,0,0,0-8-8H48a8,8,0,0,0-8,8v64a8,8,0,0,0,0,16H255a8,8,0,0,0,1-15.93ZM72,248H56V192H72Zm56,0H112V232h16Zm56,0H168V176h16Zm56,0H224V192h16Z"/><path d="M320,320H224a8,8,0,0,0-8,8v24a8,8,0,0,0,8,8h96a8,8,0,0,0,8-8V328A8,8,0,0,0,320,320Zm-8,24H232v-8h80Z"/></g></svg>
